<svg xmlns="http://www.w3.org/2000/svg"  viewBox="0 0 512 512" width="128px" height="128px"><path fill="#d4e1f4" d="M172.279,409.087a185.035,185.035,0,0,1-21.543-8.657q-2.379-1.14-4.656-2.321-3.417-1.77-6.613-3.623-6.395-3.7-11.942-7.684-1.852-1.322-3.616-2.667a134.631,134.631,0,0,1-15.54-13.834q-1.353-1.41-2.63-2.823A122.159,122.159,0,0,1,83.59,332.831c-5.57-13.27-6.56-22.61-6.56-22.61L57.39,325.242l13.79-43.411-23.05,3.79c2.93-8.79,27.38-34.76,27.38-34.76l-27.38,8.39,40.22-40.17C15.02,135.331,34.26,80.3,53.77,59.591A25.977,25.977,0,0,1,57.6,56.273l-.516-.352a25.809,25.809,0,0,0-33.31,3.67C4.26,80.3-14.98,135.331,58.35,219.081l-40.22,40.17,27.38-8.39s-24.45,25.97-27.38,34.76l23.05-3.79L27.39,325.242l19.64-15.021s.99,9.34,6.56,22.61c10.39,24.79,36.77,63.3,102.55,80.35q8.354,2.167,17.575,3.845a44.64,44.64,0,0,1-1.037-4.686C172.518,411.358,172.38,410.269,172.279,409.087Z"/><path fill="#0635c9" d="M167.459,311.831a29.247,29.247,0,1,0-29.276-29.247A29.3,29.3,0,0,0,167.459,311.831Zm0-48.493a19.247,19.247,0,1,1-19.276,19.246A19.284,19.284,0,0,1,167.459,263.338Z"/><path fill="#0635c9" d="M491.857,56.165A30.675,30.675,0,0,0,452.1,51.787l-92.315,62.858c-11.647-4.72-60.023-23.195-103.676-23.195h-.012c-42.736-.833-92.089,18.322-103.9,23.185L59.9,51.787a30.672,30.672,0,0,0-39.761,4.378C13.663,63.033-1.133,82.617,1.257,116.053,3.53,147.839,20.438,182.4,51.529,218.831L14.6,255.715a5,5,0,0,0,5,8.319l10.152-3.111c-7,8.159-14.586,17.8-16.359,23.116a5,5,0,0,0,5.553,6.516l15.006-2.466L22.623,323.733a5,5,0,0,0,7.8,5.485l13.256-10.141a120.49,120.49,0,0,0,19.31,40.588c30.24,41.865,79.466,57.5,115.438,63.242a4.987,4.987,0,0,0,.794.063l.782-9.938q-9.761-1.558-18.909-3.793c.237-9.5,2.923-36.461,24.276-62.715,12.935-15.9,21.9-32.352,25.919-47.564,4.426-16.739,2.588-31.139-5.316-41.644-9.709-12.906-20.716-20.258-32.715-21.854a41.751,41.751,0,0,0-20.664,2.747,66.491,66.491,0,0,0-16.675,9.709,85.427,85.427,0,0,0-21.759,25.393c-9.431,16.582-29.135,44.829-57.551,53.522a81.22,81.22,0,0,1-4.608-17.139A5,5,0,0,0,44,306.248l-7.033,5.38,8.985-28.281a5,5,0,0,0-5.576-6.447l-12.305,2.021c5.59-7.46,14.437-17.567,21.085-24.631a5,5,0,0,0-5.105-8.207l-8.154,2.5L77.4,207.124a5,5,0,0,0-1.631-8.162c-3.329-1.369-11.977-15-19.965-39.91-7.589-23.664-10.784-45.435-8.337-56.818,1.521-7.073,4.347-6.98,5.7-6.936,22.418.746,71.5,45.665,88.525,62.909a5,5,0,0,0,7.118-7.023c-6.549-6.637-64.861-64.866-95.31-65.88-4.677-.148-12.957,1.563-15.808,14.828-4.2,19.547,5.513,52.377,8.591,61.974,2.581,8.051,10.7,31.634,20.115,41.874l-7.768,7.759c-29.348-34.542-45.293-66.955-47.4-96.4C9.123,85.855,21.845,68.931,27.413,63.023a20.72,20.72,0,0,1,26.855-2.971L174.706,142.06a5,5,0,1,0,5.628-8.266L162.2,121.449c17.5-6.675,58.628-20.689,93.794-20h.008c35.891,0,76.36,13.537,93.726,20.039l-18.073,12.306a5,5,0,1,0,5.628,8.266L457.724,60.052a20.721,20.721,0,0,1,26.856,2.972c5.568,5.908,18.293,22.835,16.189,52.326-2.1,29.451-18.042,61.866-47.389,96.407l-7.786-7.777c9.419-10.24,17.534-33.823,20.115-41.874,3.078-9.6,12.793-42.427,8.591-61.974-2.85-13.264-11.122-14.977-15.808-14.828-30.449,1.014-88.761,59.243-95.31,65.88a5,5,0,0,0,7.118,7.024c17.021-17.245,66.107-62.164,88.525-62.91,1.363-.043,4.179-.137,5.7,6.936,2.447,11.383-.748,33.154-8.337,56.818-7.988,24.91-16.636,38.541-19.965,39.91a5,5,0,0,0-1.631,8.162L476.1,248.582l-8.154-2.5a5,5,0,0,0-5.105,8.207c6.648,7.063,15.5,17.17,21.085,24.632l-12.3-2.022a5,5,0,0,0-5.577,6.447l8.986,28.281L468,306.248a5.005,5.005,0,0,0-8.014,3.477,78.709,78.709,0,0,1-4.531,17.128c-13.947-4.338-36.818-16.962-57.623-53.542a85.428,85.428,0,0,0-21.76-25.393,66.491,66.491,0,0,0-16.675-9.709,41.75,41.75,0,0,0-20.664-2.747c-12,1.6-23,8.948-32.715,21.854-7.9,10.505-9.742,24.905-5.316,41.644,4.021,15.212,12.984,31.66,25.919,47.564,21.239,26.114,24.333,52.159,24.723,61.5Q342.4,410.17,332.88,411.7l.782,9.938a4.987,4.987,0,0,0,.794-.063c35.97-5.743,85.119-21.261,114.989-62.574a116.915,116.915,0,0,0,18.9-39.891l13.216,10.11a5,5,0,0,0,7.8-5.485l-11.325-35.644,15.006,2.466a5,5,0,0,0,5.553-6.516c-1.773-5.315-9.361-14.957-16.358-23.116l10.151,3.111a5,5,0,0,0,5-8.319l-36.913-36.866c31.09-36.431,48-70.995,50.263-102.787C513.129,82.621,498.33,63.034,491.857,56.165Zm-369,222.089a75.481,75.481,0,0,1,19.209-22.445c10.488-8.164,20.537-11.674,29.88-10.434,9.241,1.229,18,7.269,26.041,17.953,12.308,16.359,4.312,46.539-20.37,76.885-21.811,26.819-25.847,53.919-26.459,66.361-34.743-10.212-62-28.006-79.726-52.308a115.89,115.89,0,0,1-10.878-18.182C91.708,326.04,112.779,295.971,122.856,278.254ZM441,353.607c-17.578,24.058-44.847,41.681-79.754,51.795-.782-12.131-5.144-38.472-26.873-65.189-24.682-30.346-32.678-60.526-20.37-76.885,8.038-10.684,16.8-16.724,26.041-17.953,9.34-1.235,19.392,2.27,29.88,10.434a75.493,75.493,0,0,1,19.209,22.445c10.077,17.717,31.158,47.79,62.373,57.846A112.506,112.506,0,0,1,441,353.607Z"/><path fill="#0635c9" d="M344.533,253.338a29.247,29.247,0,1,0,29.277,29.246A29.3,29.3,0,0,0,344.533,253.338Zm0,48.493a19.247,19.247,0,1,1,19.277-19.247A19.284,19.284,0,0,1,344.533,301.831Z"/><path fill="#0635c9" d="M78.333,162.73a5,5,0,0,0,4.076,5.778c4.614.8,18.944,4.241,24.09,9.422l.013-.013a4.978,4.978,0,0,0,3.528,1.491A5.011,5.011,0,0,0,115,173.734c-2.952-21.758-18.952-38.943-19.632-39.663a5,5,0,0,0-7.281,6.854,78.746,78.746,0,0,1,14.054,22.9,92.747,92.747,0,0,0-18.03-5.173A5,5,0,0,0,78.333,162.73Z"/><path fill="#0635c9" d="M207.591,178.328a5,5,0,0,0-5.211,8.535c.259.157,25.794,16.341,23.942,66.418a5,5,0,0,0,4.811,5.18c.063,0,.126,0,.189,0a5,5,0,0,0,4.993-4.815C238.382,197.783,208.85,179.1,207.591,178.328Z"/><path fill="#0635c9" d="M314.619,186.848a5,5,0,0,0-5.234-8.52c-1.258.768-30.79,19.455-28.723,75.322a5,5,0,0,0,4.993,4.815c.062,0,.125,0,.188,0a5,5,0,0,0,4.812-5.18C288.821,203.717,313.5,187.552,314.619,186.848Z"/><path fill="#0635c9" d="M423.691,133.863a5,5,0,0,0-7.068.208c-.68.72-16.68,17.905-19.632,39.663a4.983,4.983,0,0,0,8.489,4.183l.013.013c5.152-5.187,19.139-8.56,24.09-9.422a5,5,0,1,0-1.7-9.853,92.747,92.747,0,0,0-18.03,5.173,78.722,78.722,0,0,1,14.053-22.9A5,5,0,0,0,423.691,133.863Z"/><path fill="#1ae5be" d="M213.7,422.713c0,14.928,19.523,26.621,44.446,26.621s44.446-11.693,44.446-26.621-19.523-26.622-44.446-26.622S213.7,407.785,213.7,422.713Zm10,0a8.287,8.287,0,0,1,1.426-4.43A30.935,30.935,0,0,1,251.8,439.035C234.959,437.448,223.7,429.726,223.7,422.713Zm68.892,0c0,7.318-12.262,15.411-30.332,16.5a41.036,41.036,0,0,0-26.587-28.88,56.953,56.953,0,0,1,22.473-4.237C278.442,406.091,292.588,414.851,292.588,422.713Z"/><path fill="#1ae5be" d="M293.649,285.849a5,5,0,0,0-9.933,1.156c.239,2.054,6.1,50.6,28.355,76.989,6.384,7.569,20.89,27.311,17.729,47.085-1.872,11.7-9.744,21.912-23.4,30.341a96.219,96.219,0,0,1-99.876.108c-13.98-8.541-22.047-18.9-23.977-30.79-3.211-19.787,11.08-39.281,17.373-46.744,22.252-26.388,28.116-74.935,28.355-76.989a5,5,0,0,0-9.933-1.156c-.055.474-5.768,47.627-26.067,71.7-20.789,24.654-21.2,44.912-19.6,54.794,2.418,14.9,12.051,27.591,28.633,37.721a105.687,105.687,0,0,0,55.135,15.482h.064a105,105,0,0,0,55.144-15.613c16.241-10.027,25.669-22.568,28.02-37.273,1.578-9.871,1.084-30.157-19.959-55.111C299.417,333.476,293.7,286.323,293.649,285.849Z"/></svg>