<?xml version="1.0" encoding="UTF-8"?>
<svg xmlns="http://www.w3.org/2000/svg" xmlns:xlink="http://www.w3.org/1999/xlink" width="300px" height="200px" viewBox="0 0 300 200" version="1.1">
<g id="surface1">
<path style=" stroke:none;fill-rule:nonzero;fill:rgb(93.333333%,20.784314%,20.392157%);fill-opacity:1;" d="M 50.070312 117.601562 C 54.648438 117.601562 57.441406 115.246094 57.441406 112.234375 C 57.441406 107.660156 52.433594 106.371094 45.632812 102.863281 C 38.90625 99.421875 35.398438 94.488281 35.398438 88.761719 C 35.398438 80.53125 42.050781 74.664062 53.222656 74.664062 C 57.367188 74.664062 61.234375 75.453125 65.386719 76.953125 L 65.386719 85.109375 C 61.308594 83.039062 58.015625 81.820312 55.296875 81.820312 C 51.429688 81.820312 48.925781 83.964844 48.925781 86.539062 C 48.925781 90.546875 54.078125 91.984375 62.453125 96.5625 C 68.035156 99.640625 70.609375 103.863281 70.609375 109.734375 C 70.609375 118.820312 63.09375 125.125 51.503906 125.125 C 46.707031 125.125 42.050781 124.191406 37.113281 122.546875 L 34.617188 112.234375 C 40.265625 115.675781 45.0625 117.601562 50.070312 117.601562 M 92.019531 95.101562 C 89.171875 95.101562 87.347656 97 87.199219 100.507812 L 96.542969 100.507812 C 96.542969 96.929688 94.941406 95.101562 92.019531 95.101562 M 86.90625 106.9375 C 86.90625 107.375 86.832031 107.8125 86.832031 108.175781 C 86.832031 114.449219 90.921875 118.105469 97.566406 118.105469 C 100.851562 118.105469 104.800781 116.722656 109.761719 114.386719 L 107.136719 122.855469 C 102.824219 124.316406 98.738281 125.335938 94.132812 125.335938 C 81.066406 125.335938 73.398438 117.964844 73.398438 107.007812 C 73.398438 96.054688 81.429688 88.3125 92.386719 88.3125 C 102.101562 88.3125 109.324219 95.175781 109.324219 105.988281 L 109.324219 106.9375 Z M 113.859375 117.816406 L 113.859375 96.199219 C 113.859375 93.347656 113.273438 91.382812 111.378906 89.625 L 114.738281 89.625 C 118.535156 89.625 122.402344 89.480469 126.421875 88.820312 L 126.710938 92.402344 C 129.632812 90.0625 132.40625 88.894531 135.691406 88.894531 C 143.363281 88.894531 148.328125 93.789062 148.328125 101.75 L 148.328125 117.816406 C 148.328125 120.664062 148.910156 122.558594 150.8125 124.316406 L 132.992188 124.316406 C 134.894531 122.558594 135.476562 120.664062 135.476562 117.816406 L 135.476562 106.640625 C 135.476562 99.851562 134.597656 96.269531 130.875 96.269531 C 127.003906 96.269531 126.710938 99.851562 126.710938 106.640625 L 126.710938 117.816406 C 126.710938 120.664062 127.296875 122.558594 129.191406 124.316406 L 111.378906 124.316406 C 113.273438 122.558594 113.859375 120.664062 113.859375 117.816406 M 170.925781 95.101562 C 168.078125 95.101562 166.253906 97 166.105469 100.507812 L 175.457031 100.507812 C 175.457031 96.929688 173.851562 95.101562 170.925781 95.101562 M 165.816406 106.9375 C 165.816406 107.375 165.742188 107.8125 165.742188 108.175781 C 165.742188 114.449219 169.832031 118.105469 176.476562 118.105469 C 179.765625 118.105469 183.710938 116.722656 188.671875 114.386719 L 186.046875 122.855469 C 181.730469 124.316406 177.644531 125.335938 173.046875 125.335938 C 159.972656 125.335938 152.304688 117.964844 152.304688 107.007812 C 152.304688 96.054688 160.339844 88.3125 171.296875 88.3125 C 181.007812 88.3125 188.234375 95.175781 188.234375 105.988281 L 188.234375 106.9375 Z M 223.417969 122.925781 C 219.621094 124.605469 215.890625 125.335938 211.949219 125.335938 C 199.753906 125.335938 192.011719 117.59375 192.011719 107.304688 C 192.011719 96.417969 200.265625 88.386719 213.191406 88.386719 C 215.238281 88.386719 217.933594 88.679688 221.375 89.191406 L 221.375 97.878906 C 218.445312 96.347656 216.113281 95.542969 214.210938 95.542969 C 209.394531 95.542969 206.25 99.191406 206.25 105.550781 C 206.25 113.074219 209.980469 117.671875 216.109375 117.671875 C 219.035156 117.671875 222.246094 116.648438 226.042969 114.601562 Z M 239.753906 114.015625 C 239.753906 116.574219 241.578125 118.328125 244.796875 118.328125 L 245.375 118.328125 L 242.3125 124.828125 C 240.265625 124.972656 238.875 125.042969 238.003906 125.042969 C 230.773438 125.042969 225.882812 120.375 225.882812 114.164062 C 225.882812 108.761719 229.3125 105.328125 236.027344 103.722656 C 242.453125 102.1875 246.621094 102.335938 246.621094 98.828125 C 246.621094 96.640625 245.085938 95.472656 242.019531 95.472656 C 239.097656 95.472656 236.027344 96.199219 232.742188 97.515625 L 236.175781 89.699219 C 238.949219 88.894531 241.574219 88.386719 244.355469 88.386719 C 250.046875 88.386719 254.144531 89.558594 256.769531 92.257812 C 259.839844 95.394531 259.914062 99.339844 259.914062 104.375 L 259.914062 113.144531 C 259.914062 116.941406 261.226562 118.035156 265.382812 118.617188 L 262.613281 124.753906 C 260.714844 124.902344 259.398438 124.976562 258.523438 124.976562 C 251.515625 124.976562 246.546875 120.664062 246.546875 114.164062 L 246.546875 108.03125 C 242.019531 109.777344 239.753906 111.101562 239.753906 114.015625 "/>
</g>
</svg>
